# AST/ASF file generated using VICON BodyLanguage
# -----------------------------------------------
:version 1.10
:name VICON
:units
  mass 1.0
  length 0.45
  angle deg
:documentation
   .ast/.asf automatically generated from VICON data using
   VICON BodyBuilder and BodyLanguage model FoxedUp or BRILLIANT.MOD
:root
   order TX TY TZ RX RY RZ
   axis XYZ
   position 0 0 0  
   orientation 0 0 0 
:bonedata
  begin
     id 1 
     name lhipjoint
     direction 0.606768 -0.715223 0.346827 
     length 2.41543 
     axis 0 0 0  XYZ
  end
  begin
     id 2 
     name lfemur
     direction 0.34202 -0.939693 0  
     length 7.2778  
     axis 0 0 20  XYZ
    dof rx ry rz
    limits (-160.0 20.0)
           (-70.0 70.0)
           (-60.0 70.0)
  end
  begin
     id 3 
     name ltibia
     direction 0.34202 -0.939693 0   
     length 7.61811   
     axis 0 0 20   XYZ
    dof rx
    limits (-10.0 170.0)
  end
  begin
     id 4 
     name lfoot
     direction 0.0823924 -0.226371 0.97055   
     length 2.33618   
     axis -90 7.62852e-016 20   XYZ
    dof rx rz
    limits (-45.0 90.0)
           (-70.0 20.0)
  end
  begin
     id 5 
     name ltoes
     direction 1.53554e-011 -4.21934e-011 1   
     length 1.17015   
     axis -90 7.62852e-016 20   XYZ
    dof rx
    limits (-90.0 20.0)
  end
  begin
     id 6 
     name rhipjoint
     direction -0.6077 -0.714582 0.346516   
     length 2.4176  
     axis 0 0 0  XYZ 
  end
  begin
     id 7 
     name rfemur
     direction -0.34202 -0.939693 0   
     length 7.28127   
     axis 0 0 -20   XYZ
    dof rx ry rz
    limits (-160.0 20.0)
           (-70.0 70.0)
           (-70.0 60.0)
  end
  begin
     id 8 
     name rtibia
     direction -0.34202 -0.939693 0   
     length 7.77648   
     axis 0 0 -20   XYZ
    dof rx
    limits (-10.0 170.0)
 end
 begin
     id 9 
     name rfoot
     direction -0.0809463 -0.222398 0.97159   
     length 2.37533  
     axis -90 -7.62852e-016 -20   XYZ
    dof rx rz
    limits (-45.0 90.0)
           (-20.0 70.0)
  end
  begin
     id 10 
     name rtoes
     direction -1.53568e-011 -4.21714e-011 1   
     length 1.18972   
     axis -90 -7.62852e-016 -20   XYZ
    dof rx
    limits (-90.0 20.0)
  end
  begin
     id 11 
     name lowerback
     direction 0.010968 0.991932 -0.126297   
     length 2.21698   
     axis 0 0 0   XYZ
    dof rx ry rz
    limits (-20.0 45.0)
           (-30.0 30.0)
           (-30.0 30.0)
  end
  begin
     id 12 
     name upperback
     direction 0.0167007 0.997503 -0.0686276   
     length 2.22371   
     axis 0 0 0   XYZ
    dof rx ry rz
    limits (-20.0 45.0)
           (-30.0 30.0)
           (-30.0 30.0)
  end
  begin
     id 13 
     name thorax
     direction 0.0111721 0.999885 -0.0102878   
     length 2.25242   
     axis 0 0 0   XYZ
    dof rx ry rz
    limits (-20.0 45.0)
           (-30.0 30.0)
           (-30.0 30.0)
  end
  begin
     id 14 
     name lowerneck
     direction -0.0120265 0.990428 0.137508   
     length 1.57674   
     axis 0 0 0   XYZ
    dof rx ry rz
    limits (-20.0 45.0)
           (-30.0 30.0)
           (-30.0 30.0)
  end
  begin
     id 15 
     name upperneck
     direction 0.0175669 0.998907 0.0433089   
     length 1.5618   
     axis 0 0 0   XYZ
    dof rx ry rz
    limits (-20.0 45.0)
           (-30.0 30.0)
           (-30.0 30.0)
  end
  begin
     id 16
     name head
     direction 0.00754609 0.99997 0.00185367  
     length 1.60579  
     axis 0 0 0   XYZ
    dof rx ry rz
    limits (-20.0 45.0)
           (-30.0 30.0)
           (-30.0 30.0)
  end
  begin
     id 17 
     name lclavicle
     direction 0.885866 0.429166 -0.176231  
     length 3.44967  
     axis 0 0 0   XYZ
    dof ry rz
    limits (-20.0 10.0)
           (0.0 20.0)
  end
  begin
     id 18 
     name lhumerus
     direction 1 -4.48973e-011 -1.90255e-027   
     length 5.20607   
     axis 180 -30 -90   XYZ
    dof rx ry rz
    limits (-60.0 90.0)
           (-90.0 90.0)
           (-90.0 90.0)
  end
  begin
     id 19
     name lradius
     direction 1 -4.48956e-011 9.87925e-027   
     length 3.39961   
     axis 180 -30 -90   XYZ
    dof rx
    limits (-10.0 170.0)
  end
  begin
     id 20
     name lwrist
     direction 1 -4.48985e-011 1.73247e-026   
     length 1.6998   
     axis -9.60847e-015 90 90   XYZ
    dof ry
    limits (-180.0 0.0)
 end
  begin
     id 21 
     name lhand
     direction 1 -4.48798e-011 3.46119e-026   
     length 0.519693   
     axis -2.21073e-014 90 90   XYZ
    dof rx rz
    limits (-90.0 90.0)
           (-45.0 45.0)
  end
  begin
     id 22 
     name lfingers
     direction 1 -4.48938e-011 6.92797e-026   
     length 0.41899   
     axis -4.42155e-014 90 90   XYZ
    dof rx
    limits (0.0 90.0)
  end
  begin
     id 23
     name lthumb
     direction 0.707107 -6.34952e-011 0.707107   
     length 0.601588   
     axis -90 45 6.0103e-014   XYZ
    dof rx rz
    limits (-45.0 45.0)
           (-45.0 45.0)
  end
  begin
     id 24 
     name rclavicle
     direction -0.866736 0.456792 -0.200276   
     length 3.45032  
     axis 0 0 0   XYZ 
    dof ry rz
    limits (-10.0 20.0)
           (-20.0 0.0)
  end
  begin
     id 25 
     name rhumerus
     direction -1 -4.4897e-011 8.65094e-028  
     length 5.32214   
     axis 180 30 90   XYZ
    dof rx ry rz
    limits (-90.0 60.0)
           (-90.0 90.0)
           (-90.0 90.0)
  end
  begin
     id 26 
     name rradius
     direction -1 -4.48987e-011 1.08427e-026   
     length 3.51208   
     axis 180 30 90   XYZ
    dof rx
    limits (-10.0 170.0)
  end
  begin
     id 27 
     name rwrist
     direction -1 -4.48961e-011 1.73222e-026   
     length 1.75604   
     axis -9.60847e-015 -90 -90   XYZ
    dof ry
    limits (-180.0 0.0)
  end
  begin
     id 28
     name rhand
     direction -1 -4.48895e-011 3.46314e-026   
     length 0.586681   
     axis -2.21073e-014 -90 -90   XYZ
    dof rx rz
    limits (-90.0 90.0)
           (-45.0 45.0)
  end
  begin
     id 29
     name rfingers
     direction -1 -4.48968e-011 6.92916e-026   
     length 0.472997   
     axis -4.42155e-014 -90 -90   XYZ
    dof rx
    limits (0.0 90.0)
  end
  begin
     id 30
     name rthumb
     direction -0.707107 -6.34848e-011 0.707107   
     length 0.679133   
     axis -90 -45 -6.0103e-014   XYZ
    dof rx rz
    limits (-45.0 45.0)
           (-45.0 45.0)
  end
:hierarchy
  begin
    root lhipjoint rhipjoint lowerback
    lhipjoint lfemur
    lfemur ltibia
    ltibia lfoot
    lfoot ltoes
    rhipjoint rfemur
    rfemur rtibia
    rtibia rfoot
    rfoot rtoes
    lowerback upperback
    upperback thorax
    thorax lowerneck lclavicle rclavicle
    lowerneck upperneck
    upperneck head
    lclavicle lhumerus
    lhumerus lradius
    lradius lwrist
    lwrist lhand lthumb
    lhand lfingers
    rclavicle rhumerus
    rhumerus rradius
    rradius rwrist
    rwrist rhand rthumb
    rhand rfingers
  end

#!OML:ASF H:\Dans Jumps\Project 1\Capture day 1\Session 1\subject.ASF
:FULLY-SPECIFIED
:DEGREES
21
root 0.602787 17.4878 -13.6197 5.58048 -1.36822 -1.9534
lowerback -3.27779 -0.00648819 0.667981
upperback 1.16032 -0.081687 1.48085
thorax 3.03197 -0.0426766 1.14312
lowerneck -15.4012 -0.0964403 -2.13058
upperneck 15.9651 0.159453 1.10795
head 7.44321 0.0509421 0.730247
rclavicle 4.5969e-015 -2.56432e-014
rhumerus -24.7957 -16.6974 -79.91
rradius 23.8987
rwrist 33.7279
rhand -18.6674 -25.6871
rfingers 7.12502
rthumb 7.62614 -55.5296
lclavicle 4.5969e-015 -2.56432e-014
lhumerus -22.88 2.08703 87.3104
lradius 17.5454
lwrist 1.24165
lhand -23.9671 -1.91182
lfingers 7.12502
lthumb 2.50909 28.0532
rfemur -10.922 -3.44053 20.646
rtibia 21.4291
rfoot -15.2866 -2.40728
rtoes 9.28914
lfemur -10.3181 6.87962 -17.4649
ltibia 20.3043
lfoot -12.3754 8.04039
ltoes -6.04584
22
root 0.603536 17.4878 -13.6199 5.58032 -1.365 -1.95024
lowerback -3.27437 -0.00839101 0.66871
upperback 1.15807 -0.0842278 1.48302
thorax 3.02776 -0.0439468 1.14478
lowerneck -15.4023 -0.0943699 -2.13182
upperneck 15.9878 0.163652 1.1021
head 7.45083 0.0522047 0.729085
rclavicle 1.63997e-015 1.2921e-014
rhumerus -24.7853 -16.6766 -79.9093
rradius 23.9019
rwrist 33.7328
rhand -18.6989 -25.6557
rfingers 7.12502
rthumb 7.59574 -55.4993
lclavicle 1.63997e-015 1.2921e-014
lhumerus -22.8932 2.07821 87.3152
lradius 17.5375
lwrist 1.23324
lhand -23.972 -1.9322
lfingers 7.12502
lthumb 2.50439 28.0328
rfemur -10.9244 -3.44631 20.6399
rtibia 21.4331
rfoot -15.2875 -2.40599
rtoes 9.27778
lfemur -10.3237 6.88269 -17.4713
ltibia 20.3106
lfoot -12.3769 8.03391
ltoes -6.04481
23
root 0.604306 17.4877 -13.6202 5.57967 -1.3604 -1.94841
lowerback -3.27094 -0.0102317 0.670904
upperback 1.15621 -0.0867614 1.48532
thorax 3.02395 -0.0451874 1.14576
lowerneck -15.4024 -0.0922152 -2.13361
upperneck 16.0105 0.167659 1.09844
head 7.4582 0.0535491 0.728708
rclavicle -3.47873e-016 -5.56597e-015
rhumerus -24.7749 -16.6575 -79.9084
rradius 23.9044
rwrist 33.736
rhand -18.7276 -25.6346
rfingers 7.12502
rthumb 7.5681 -55.4792
lclavicle -3.47873e-016 -5.56597e-015
lhumerus -22.905 2.07179 87.3192
lradius 17.5272
lwrist 1.22223
lhand -23.9768 -1.94888
lfingers 7.12502
lthumb 2.49972 28.0162
rfemur -10.9257 -3.45247 20.635
rtibia 21.4372
rfoot -15.29 -2.40348
rtoes 9.27989
lfemur -10.3279 6.88504 -17.4762
ltibia 20.3154
lfoot -12.3781 8.02649
ltoes -6.04046
24
root 0.605081 17.4877 -13.6204 5.57765 -1.35424 -1.94552
lowerback -3.26485 -0.0123766 0.670977
upperback 1.15382 -0.0895611 1.48791
thorax 3.01809 -0.0466029 1.14821
lowerneck -15.405 -0.0904888 -2.1376
upperneck 16.0382 0.171171 1.09731
head 7.46769 0.0547423 0.729498
rclavicle 2.60905e-015 -4.77083e-015
rhumerus -24.7676 -16.6366 -79.906
rradius 23.9087
rwrist 33.7353
rhand -18.7506 -25.6168
rfingers 7.12502
rthumb 7.54588 -55.4622
lclavicle 2.60905e-015 -4.77083e-015
lhumerus -22.9159 2.0652 87.3237
lradius 17.5123
lwrist 1.21024
lhand -23.985 -1.98012
lfingers 7.12502
lthumb 2.49183 27.9851
rfemur -10.9244 -3.45846 20.629
rtibia 21.4408
rfoot -15.2937 -2.40176
rtoes 9.28903
lfemur -10.3302 6.88565 -17.482
ltibia 20.3199
lfoot -12.3793 8.02066
ltoes -6.04501
25
root 0.605903 17.4876 -13.6206 5.57536 -1.34897 -1.9429
lowerback -3.25994 -0.013626 0.671555
upperback 1.15243 -0.0912212 1.49038
thorax 3.01393 -0.047441 1.15031
lowerneck -15.4095 -0.0901429 -2.14191
upperneck 16.0674 0.172848 1.09652
head 7.47804 0.055068 0.730261
rclavicle 5.93869e-015 1.70955e-014
rhumerus -24.7599 -16.6136 -79.904
rradius 23.9144
rwrist 33.731
rhand -18.7646 -25.6081
rfingers 7.12502
rthumb 7.53238 -55.454
lclavicle 5.93869e-015 1.70955e-014
lhumerus -22.9252 2.06382 87.3271
lradius 17.4965
lwrist 1.19093
lhand -23.9956 -2.01336
lfingers 7.12502
lthumb 2.48166 27.952
rfemur -10.9225 -3.46262 20.6228
rtibia 21.4437
rfoot -15.2978 -2.39968
rtoes 9.30409
lfemur -10.3318 6.88523 -17.4876
ltibia 20.325
lfoot -12.3804 8.01751
ltoes -6.0541
26
root 0.606691 17.4875 -13.6208 5.5719 -1.34374 -1.94455
lowerback -3.25257 -0.0141301 0.675636
upperback 1.15107 -0.0920345 1.49395
thorax 3.00839 -0.0478013 1.15164
lowerneck -15.4184 -0.0900323 -2.14542
upperneck 16.1029 0.174038 1.09608
head 7.49125 0.0552204 0.730992
rclavicle 4.37326e-015 1.51076e-014
rhumerus -24.7537 -16.5914 -79.9011
rradius 23.9208
rwrist 33.7275
rhand -18.7736 -25.5986
rfingers 7.12502
rthumb 7.52368 -55.4448
lclavicle 4.37326e-015 1.51076e-014
lhumerus -22.9349 2.05794 87.3311
lradius 17.4808
lwrist 1.1761
lhand -24.0076 -2.05134
lfingers 7.12502
lthumb 2.47003 27.9141
rfemur -10.9196 -3.46342 20.6218
rtibia 21.4469
rfoot -15.302 -2.40067
rtoes 9.31699
lfemur -10.3323 6.88426 -17.488
ltibia 20.3305
lfoot -12.3823 8.01578
ltoes -6.06382
27
root 0.607462 17.4873 -13.6211 5.5684 -1.34082 -1.94703
lowerback -3.24543 -0.013539 0.680112
upperback 1.15059 -0.0914103 1.49712
thorax 3.00387 -0.0474351 1.15242
lowerneck -15.4301 -0.0898919 -2.14894
upperneck 16.1405 0.174855 1.09816
head 7.50565 0.0554298 0.732531
rclavicle -2.03754e-015 5.36719e-015
rhumerus -24.7451 -16.5751 -79.8983
rradius 23.9244
rwrist 33.73
rhand -18.7753 -25.596
rfingers 7.12502
rthumb 7.52206 -55.4422
lclavicle -2.03754e-015 5.36719e-015
lhumerus -22.9443 2.05136 87.334
lradius 17.4675
lwrist 1.16196
lhand -24.0211 -2.09994
lfingers 7.12502
lthumb 2.45699 27.8657
rfemur -10.9182 -3.46282 20.6217
rtibia 21.4506
rfoot -15.3046 -2.40232
rtoes 9.32082
lfemur -10.3326 6.88352 -17.4874
ltibia 20.3365
lfoot -12.3846 8.016
ltoes -6.07521
28
root 0.608185 17.4871 -13.6214 5.56623 -1.33523 -1.94753
lowerback -3.23771 -0.0133546 0.681963
upperback 1.14839 -0.0911437 1.49932
thorax 2.99724 -0.0472849 1.15364
lowerneck -15.4428 -0.0900542 -2.152
upperneck 16.1824 0.174782 1.10222
head 7.52161 0.0554154 0.734571
rclavicle 3.03147e-015 -1.45113e-014
rhumerus -24.7409 -16.5587 -79.8948
rradius 23.929
rwrist 33.7329
rhand -18.7774 -25.5944
rfingers 7.12502
rthumb 7.51997 -55.4407
lclavicle 3.03147e-015 -1.45113e-014
lhumerus -22.9561 2.04448 87.336
lradius 17.4561
lwrist 1.15032
lhand -24.0341 -2.14052
lfingers 7.12502
lthumb 2.44444 27.8252
rfemur -10.9186 -3.46418 20.6202
rtibia 21.4552
rfoot -15.3062 -2.40668
rtoes 9.31586
lfemur -10.3355 6.88224 -17.4888
ltibia 20.3431
lfoot -12.3868 8.0139
ltoes -6.08413
29
root 0.608915 17.4869 -13.6216 5.56334 -1.33269 -1.94698
lowerback -3.22993 -0.0117451 0.682243
upperback 1.14629 -0.0888884 1.5009
thorax 2.99067 -0.0461672 1.15522
lowerneck -15.4547 -0.0898167 -2.15674
upperneck 16.225 0.17464 1.11148
head 7.5377 0.0557597 0.738591
rclavicle -2.08724e-015 1.13307e-014
rhumerus -24.7378 -16.5473 -79.8899
rradius 23.931
rwrist 33.7404
rhand -18.7808 -25.5864
rfingers 7.12502
rthumb 7.51676 -55.4328
lclavicle -2.08724e-015 1.13307e-014
lhumerus -22.9698 2.03236 87.3386
lradius 17.4482
lwrist 1.14654
lhand -24.0459 -2.17835
lfingers 7.12502
lthumb 2.43299 27.7875
rfemur -10.9192 -3.46607 20.6172
rtibia 21.4608
rfoot -15.3081 -2.40899
rtoes 9.30742
lfemur -10.3371 6.88288 -17.4915
ltibia 20.3497
lfoot -12.39 8.01207
ltoes -6.08933
